<?xml version="1.0" encoding="UTF-8"?>
<svg xmlns="http://www.w3.org/2000/svg" xmlns:xlink="http://www.w3.org/1999/xlink" width="75px" height="75px" viewBox="0 0 75 75" version="1.1">
<g id="surface1">
<path style=" stroke:none;fill-rule:nonzero;fill:rgb(25.882354%,52.156866%,95.686275%);fill-opacity:1;" d="M 69.757812 38.246094 C 69.757812 36.078125 69.566406 34.015625 69.226562 32.007812 L 38.203125 32.007812 L 38.203125 44.398438 L 55.972656 44.398438 C 55.179688 48.472656 52.835938 51.898438 49.378906 54.230469 L 49.378906 62.460938 L 59.984375 62.460938 C 66.179688 56.71875 69.757812 48.265625 69.757812 38.246094 Z M 69.757812 38.246094 "/>
<path style=" stroke:none;fill-rule:nonzero;fill:rgb(20.392157%,65.882355%,32.549021%);fill-opacity:1;" d="M 38.203125 70.460938 C 47.109375 70.460938 54.550781 67.5 59.984375 62.460938 L 49.378906 54.226562 C 46.421875 56.207031 42.65625 57.421875 38.203125 57.421875 C 29.605469 57.421875 22.324219 51.621094 19.71875 43.796875 L 8.789062 43.796875 L 8.789062 52.28125 C 14.195312 63.046875 25.3125 70.460938 38.203125 70.460938 Z M 38.203125 70.460938 "/>
<path style=" stroke:none;fill-rule:nonzero;fill:rgb(98.431373%,73.725492%,1.960784%);fill-opacity:1;" d="M 19.71875 43.785156 C 19.027344 41.804688 18.675781 39.695312 18.675781 37.5 C 18.675781 35.300781 19.058594 33.191406 19.71875 31.214844 L 19.71875 22.734375 L 8.789062 22.734375 C 6.53125 27.171875 5.242188 32.167969 5.242188 37.5 C 5.242188 42.832031 6.53125 47.828125 8.789062 52.28125 C 8.789062 52.28125 19.71875 43.785156 19.71875 43.785156 Z M 19.71875 43.785156 "/>
<path style=" stroke:none;fill-rule:nonzero;fill:rgb(91.764706%,26.274511%,20.784314%);fill-opacity:1;" d="M 38.203125 17.59375 C 43.066406 17.59375 47.402344 19.261719 50.828125 22.542969 L 60.21875 13.152344 C 54.535156 7.808594 47.09375 4.539062 38.203125 4.539062 C 25.3125 4.539062 14.195312 11.953125 8.789062 22.71875 L 19.71875 31.203125 C 22.324219 23.378906 29.605469 17.59375 38.203125 17.59375 Z M 38.203125 17.59375 "/>
</g>
</svg>
