<?xml version="1.0" encoding="UTF-8"?>
<svg xmlns="http://www.w3.org/2000/svg" xmlns:xlink="http://www.w3.org/1999/xlink" width="75px" height="75px" viewBox="0 0 75 75" version="1.1">
<g id="surface1">
<path style=" stroke:none;fill-rule:nonzero;fill:rgb(23.529412%,11.372549%,11.764706%);fill-opacity:1;" d="M 37.425781 7.03125 C 43.847656 7.03125 49.789062 8.28125 55.246094 10.78125 C 60.707031 13.28125 65.019531 16.679688 68.191406 20.980469 C 71.363281 25.277344 72.949219 29.96875 72.949219 35.046875 C 72.949219 40.125 71.363281 44.820312 68.191406 49.132812 C 65.019531 53.445312 60.710938 56.851562 55.265625 59.351562 C 49.824219 61.851562 43.875 63.101562 37.425781 63.101562 C 35.390625 63.101562 33.289062 62.957031 31.125 62.664062 C 21.714844 69.199219 16.707031 72.507812 16.097656 72.585938 C 15.808594 72.691406 15.527344 72.679688 15.265625 72.546875 C 15.160156 72.464844 15.078125 72.359375 15.027344 72.226562 C 14.972656 72.097656 14.949219 71.976562 14.949219 71.871094 L 14.949219 71.710938 C 15.105469 70.679688 16.308594 66.382812 18.554688 58.816406 C 13.453125 56.277344 9.402344 52.910156 6.402344 48.71875 C 3.402344 44.523438 1.90625 39.96875 1.90625 35.046875 C 1.90625 29.96875 3.488281 25.277344 6.660156 20.980469 C 9.832031 16.679688 14.148438 13.28125 19.605469 10.78125 C 25.0625 8.28125 31.003906 7.03125 37.425781 7.03125 Z M 37.425781 7.03125 "/>
</g>
</svg>
