<?xml version="1.0" encoding="UTF-8"?>
<svg version="1.1" xmlns="http://www.w3.org/2000/svg" width="195" height="195">
<path d="M0 0 C15.44607262 12.05699501 26.93113148 29.58811888 30.15966797 49.07666016 C32.92975312 71.57848489 28.76336751 92.99603148 15.08203125 111.3671875 C13.89999836 112.76486153 12.6901265 114.13934953 11.45703125 115.4921875 C10.36648437 116.72001953 10.36648437 116.72001953 9.25390625 117.97265625 C-4.88091504 133.04219959 -24.34705848 141.1875597 -44.890625 141.84594727 C-60.91012668 142.00403445 -74.39185429 137.59721433 -88.54296875 130.4921875 C-88.98576172 131.07597168 -89.42855469 131.65975586 -89.88476562 132.26123047 C-91.93616512 134.96423215 -93.9895575 137.66571384 -96.04296875 140.3671875 C-97.08710937 141.74390625 -97.08710937 141.74390625 -98.15234375 143.1484375 C-110.70932904 159.65854779 -110.70932904 159.65854779 -114.54296875 163.4921875 C-120.77067338 164.05834247 -120.77067338 164.05834247 -123.241395 162.24710369 C-124.87800642 160.0404551 -124.92214237 158.83250734 -124.9306488 156.10102844 C-124.94055344 155.20288422 -124.95045807 154.30473999 -124.96066284 153.37937927 C-124.95616119 152.39607132 -124.95165955 151.41276337 -124.94702148 150.3996582 C-124.95388474 149.36178162 -124.96074799 148.32390503 -124.96781921 147.25457764 C-124.98617776 143.80890353 -124.98223237 140.36368151 -124.9765625 136.91796875 C-124.98112417 134.51677808 -124.9864297 132.11558871 -124.9924469 129.71440125 C-125.00139891 124.66786419 -124.998936 119.62148513 -124.98901367 114.57495117 C-124.9775973 108.14521101 -124.99761195 101.71602604 -125.02693081 95.28635883 C-125.04540317 90.31795339 -125.04497716 85.34967778 -125.03929329 80.38124657 C-125.03914101 78.01366594 -125.045107 75.64607597 -125.05758476 73.27852821 C-125.1301852 57.22526628 -124.67106983 41.84330603 -116.98046875 27.3046875 C-116.64168701 26.65161621 -116.30290527 25.99854492 -115.95385742 25.32568359 C-106.20178133 7.35846035 -89.95921098 -4.92149677 -70.91015625 -11.82421875 C-46.8404338 -18.91663183 -20.29022715 -14.87760274 0 0 Z M-75.54296875 36.4921875 C-83.58458803 46.36607447 -86.61954391 56.83105704 -85.54296875 69.4921875 C-82.93990489 81.55552914 -76.49117244 90.30205951 -66.54296875 97.4921875 C-57.08862562 102.37411766 -46.92488098 104.14659707 -36.54296875 101.3671875 C-25.48615632 97.62381527 -16.77307015 90.8368967 -11.16796875 80.4921875 C-6.26047525 69.54804271 -6.62344005 58.68872798 -10.54296875 47.4921875 C-15.98851199 36.68592256 -24.24870811 29.57846503 -35.54296875 25.4921875 C-50.18117071 20.76432103 -65.0346726 26.05763378 -75.54296875 36.4921875 Z " fill="#424BE6" transform="translate(144.54296875,23.5078125)"/>
<path d="M0 0 C5.09620539 3.01237564 8.70841667 7.93775001 10.5625 13.5 C11.19356462 21.06243008 11.58473759 28.37871319 6.5625 34.5 C-0.05052617 40.56748478 -5.22499829 41.87850002 -14.140625 41.76953125 C-19.75859236 41.31024245 -23.40294574 39.71748567 -27.21875 35.55859375 C-32.7581503 28.46450327 -33.03925913 22.37321194 -32.4375 13.5 C-30.34484485 7.33217429 -25.79708653 3.07305769 -20.4375 -0.5 C-14.1537238 -2.59459207 -6.12809057 -2.6958848 0 0 Z " fill="#D0D2FA" transform="translate(108.4375,67.5)"/>
</svg>
